# xmcd
#
# Track frame offsets:
#	150
#	12232
#	27417
#	44035
#	59877
#	70765
#	87105
#	99885
#	112705
#	123315
#	138115
#	141635
#	155402
#
# Disc length: 2116 seconds
#
# Revision: 1
# Processed by: cddbd v1.5.2PL0 Copyright (c) Steve Scherf et al.
# Submitted via: audiograbber 1.82.00
#
DISCID=b008420d
DTITLE=Bobby Darren - Where The Good Times Go
DYEAR=1994
DGENRE=Country
TTITLE0=Bobby Darren - I'll Just Turn and Walk Away
TTITLE1=Bobby Darren - Angel First Class
TTITLE2=Bobby Darren - Ghost Riders In The Sky
TTITLE3=Bobby Darren - Where The Tall Grass Grows
TTITLE4=Bobby Darren - Where The Good Times Go
TTITLE5=Bobby Darren - Country Rosies
TTITLE6=Bobby Darren Jr. - Between You and Me
TTITLE7=Sheila Marie - Hanging My Heart Out On The Line
TTITLE8=Bobby Darren - Nashville Bum
TTITLE9=Bobby Darren Jr and Sheila Marie - Send a Message To My Heart
TTITLE10=Bobby Darren Jr and Sheila Marie - I Think (studio chatter)
TTITLE11=Bobby Darren - You're Still The World To Me
TTITLE12=Bobby Darren - Only Johnny Howard (studio chatter)
EXTD=Bobby Darren 1994 Original Demo CD\nBluebill Music\nProduced By Johnny How
EXTD=ard\nExecutive Producer Ron Noffke
EXTT0=
EXTT1=
EXTT2=
EXTT3=
EXTT4=
EXTT5=
EXTT6=
EXTT7=
EXTT8=
EXTT9=
EXTT10=
EXTT11=
EXTT12=
PLAYORDER=
